<svg xmlns="http://www.w3.org/2000/svg" width="1024mm" height="576mm" viewBox="0 0 1024 576">
    <defs>
        <marker id="arrowend" markerWidth="10" markerHeight="7" refX="10" refY="3.5" orient="auto">
          <polygon points="0 0, 10 3.5, 0 7" />
        </marker>
        <marker id="arrowstart" markerWidth="10" markerHeight="7" refX="0" refY="3.5" orient="auto">
          <polygon points="10 0, 0 3.5, 10 7" />
        </marker>
    </defs>
    <style type="text/css">
    
        .cut path {
            stroke: #222222;
            fill: #444444;
            fill-rule: evenodd;
        }
        .projection path {
            stroke: #222222;
            fill: none;
            stroke-opacity: 0.6;
        }
        .IfcDoor path,
        .Symbol path {
            fill: none;
        }
        .Symbol path {
            stroke-width: 0.5px;
        }
        .IfcSpace path {
            fill-opacity: 0.7;
        }
        .Dimension path {
            marker-end: url(#arrowend);
            marker-start: url(#arrowstart);
        }
        text {
            font-size: 2;
        }
        path {
            stroke-width: 0.3;
        }
    
    </style>
    <g id="storey-a8f3bcfc-63b2-45c0-902d-c368556386c0" class="IfcBuildingStorey" data-name="Erdgeschoss" data-guid="2eyxpyOx95m90jmsXLOuR0" data-plane="[[1.000000,0.000000,0.000000,0.000000],[0.000000,1.000000,0.000000,0.000000],[0.000000,0.000000,1.000000,1.200000],[0.000000,0.000000,0.000000,1.000000]]" data-matrix3="[[15.000000,0.000000,422.000000],[0.000000,15.000000,363.000000],[0.000000,0.000000,1.000000]]">
        <g id="product-a167c520-8800-48d8-a07c-aa352a699dde-body" class="IfcWallStandardCase" data-name="Wand-Int-ERDG-4" data-guid="2XPyKWY018sA1ygZKgQPtU">
            <path d="M533.15,302.85 L597.5,302.85 L597.5,299.25 L536.75,299.25 L533.15,302.85" />
        </g>
        <g id="product-b3dee06e-1f4c-48f9-ab82-0b9b6bfc034e-body" class="IfcWallStandardCase" data-name="Wand-Int-ERDG-1" data-guid="2ptk1k7qn8_Qk22vjh$0DE">
            <path d="M479,217.5 L479,273.15 L482.6,273.15 L482.6,217.5 L479,217.5" />
        </g>
        <g id="product-28fab96e-49a1-4d59-abd2-4ff09f0edfb0-body" class="IfcSpace" data-name="3" data-guid="0e_hbkIQ5DMQlIJ$2V3j_m">
            <path d="M482.6,273.15 L482.6,217.5 L533.15,217.5 L533.15,273.15 L482.6,273.15" style="fill: #ff0000;" />
            <text text-anchor="middle" x="507.875" y="245.325"><tspan style="fill:#FFFFFF;font-weight:bold;font-size:18px" dy="0.4em">33.3</tspan></text></g>
        <g id="product-7feb09fa-819b-4d8b-8bb8-faaadfbbcc4e-body" class="IfcWallStandardCase" data-name="Wand-Int-ERDG-5" data-guid="1$wmdwWPjDYuku_ghVkynE">
            <path d="M426.5,302.85 L479,302.85 L479,299.25 L426.5,299.25 L426.5,302.85" />
        </g>
        <g id="product-c41ed3ce-0bc8-474a-b30e-48a570e33391-body" class="IfcSpace" data-name="4" data-guid="347jFE2yX7IhCEIALmupEH">
            <path d="M536.75,299.25 L536.75,217.5 L597.5,217.5 L597.5,299.25 L536.75,299.25" style="fill: #860079;" />
            <text text-anchor="middle" x="567.125" y="258.375"><tspan style="fill:#FFFFFF;font-weight:bold;font-size:18px" dy="0.4em">17.5</tspan></text></g>
        <g id="product-58c36207-1644-4382-afc9-bc61510a343a-body" class="IfcDoor" data-name="Innentuer-1" data-guid="1Oms875aH3Wg$9l65H2ZGw">
            <path d="M533.15,294.637 L533.15,293.887 L534.65,293.887 L534.65,294.637 L533.15,294.637 M533.15,282.113 L533.15,281.363 L534.65,281.363 L534.65,282.113 L533.15,282.113" />
            <path d="M533.15,282.113 L533.75,282.113 L533.75,293.887 L533.15,293.887 L533.15,282.113" />
            <path d="M533.9,281.362 L520.625,281.362 A13.275,13.275 1.5708 0,0 533.9,294.638" />
        </g>
        <g id="product-9b70cf55-60bf-443c-a53f-fba3887e6b96-body" class="IfcSpace" data-name="2" data-guid="2RSCzLOBz4FAK$_wE8VckM">
            <path d="M426.5,273.15 L426.5,217.5 L479,217.5 L479,273.15 L426.5,273.15" style="fill: #e0001f;" />
            <text text-anchor="middle" x="452.75" y="245.325"><tspan style="fill:#FFFFFF;font-weight:bold;font-size:18px" dy="0.4em">29.2</tspan></text></g>
        <g id="product-b4b1964f-0cfd-4f21-84b4-a7552c71ed30-body" class="IfcDoor" data-name="Innentuer-3" data-guid="2qiPPF3FrF8OIqfrKiSUqm">
            <path d="M459.387,275.25 L459.387,276.75 L458.637,276.75 L458.637,275.25 L459.387,275.25 M446.863,276.75 L446.113,276.75 L446.113,275.25 L446.863,275.25 L446.863,276.75" />
            <path d="M446.863,275.85 L446.863,275.25 L458.637,275.25 L458.637,275.85 L446.863,275.85" />
            <path d="M459.388,276 A13.275,13.275 0 0,0 446.112,262.725 L446.112,276" />
        </g>
        <g id="product-3340ab6f-4d66-43b2-9899-29d7cf17b29b-body" class="IfcDoor" data-name="Innentuer-2" data-guid="0pGAjlJMP3ifYPATVF5xAR">
            <path d="M513.538,275.25 L513.538,276.75 L512.788,276.75 L512.788,275.25 L513.538,275.25 M501.012,276.75 L500.262,276.75 L500.262,275.25 L501.012,275.25 L501.012,276.75" />
            <path d="M501.012,275.85 L501.012,275.25 L512.788,275.25 L512.788,275.85 L501.012,275.85" />
            <path d="M513.538,276 A13.275,13.275 0 0,0 500.262,262.725 L500.262,276" />
        </g>
        <g id="product-76d4a4bf-6c47-48b2-b561-71747079c39d-body" class="IfcWindow" data-name="EG-Fenster-6" data-guid="1srAI$R4T8ihLXSNHmUSET">
            <path d="M423.8,235.575 L424.55,235.575 L424.55,236.625 L423.8,236.625 L423.8,235.575 M424.55,250.05 L424.55,251.1 L423.8,251.1 L423.8,250.05 L424.55,250.05 M424.55,264.525 L424.55,265.575 L423.8,265.575 L423.8,264.525 L424.55,264.525" />
            <path d="M424.175,236.625 L424.55,236.625 L424.55,237 L424.175,237 L424.175,236.625 M424.55,249.675 L424.55,250.05 L424.175,250.05 L424.175,249.675 L424.55,249.675" />
            <path d="M424.55,236.25 L424.925,236.25 L424.925,237 L424.55,237 L424.55,236.25 M424.925,249.675 L424.925,250.425 L424.55,250.425 L424.55,249.675 L424.925,249.675" />
            <path d="M424.4,237 L424.7,237 L424.7,249.675 L424.4,249.675 L424.4,237" />
            <path d="M424.175,251.1 L424.55,251.1 L424.55,251.475 L424.175,251.475 L424.175,251.1 M424.55,264.15 L424.55,264.525 L424.175,264.525 L424.175,264.15 L424.55,264.15" />
            <path d="M424.55,250.725 L424.925,250.725 L424.925,251.475 L424.55,251.475 L424.55,250.725 M424.925,264.15 L424.925,264.9 L424.55,264.9 L424.55,264.15 L424.925,264.15" />
            <path d="M424.4,251.475 L424.7,251.475 L424.7,264.15 L424.4,264.15 L424.4,251.475" />
        </g>
        <g id="product-edb600f5-5461-46a3-b0c4-43ad8208ea56-body" class="IfcWallStandardCase" data-name="Wand-Int-ERDG-3" data-guid="3jjW3rL656ex34Gws22EfM">
            <path d="M446.113,276.75 L446.113,273.15 L426.5,273.15 L426.5,276.75 L446.113,276.75 M459.387,273.15 L459.387,276.75 L500.262,276.75 L500.262,273.15 L459.387,273.15 M513.538,273.15 L513.538,276.75 L533.15,276.75 L533.15,273.15 L513.538,273.15" />
        </g>
        <g id="product-85c53ece-ce2a-4855-b353-5ee59e7d8030-body" class="IfcWindow" data-name="EG-Fenster-4" data-guid="25nJxEpYf8LRDJNkMUVO0m">
            <path d="M478.85,361.2 L477.8,361.2 L477.8,360.45 L478.85,360.45 L478.85,361.2 M464.375,361.2 L463.325,361.2 L463.325,360.45 L464.375,360.45 L464.375,361.2 M449.9,361.2 L448.85,361.2 L448.85,360.45 L449.9,360.45 L449.9,361.2" />
            <path d="M477.8,360.825 L477.425,360.825 L477.425,360.45 L477.8,360.45 L477.8,360.825 M464.75,360.825 L464.375,360.825 L464.375,360.45 L464.75,360.45 L464.75,360.825" />
            <path d="M478.175,360.45 L477.425,360.45 L477.425,360.075 L478.175,360.075 L478.175,360.45 M464.75,360.45 L464,360.45 L464,360.075 L464.75,360.075 L464.75,360.45" />
            <path d="M477.425,360.6 L464.75,360.6 L464.75,360.3 L477.425,360.3 L477.425,360.6" />
            <path d="M463.325,360.825 L462.95,360.825 L462.95,360.45 L463.325,360.45 L463.325,360.825 M450.275,360.825 L449.9,360.825 L449.9,360.45 L450.275,360.45 L450.275,360.825" />
            <path d="M463.7,360.45 L462.95,360.45 L462.95,360.075 L463.7,360.075 L463.7,360.45 M450.275,360.45 L449.525,360.45 L449.525,360.075 L450.275,360.075 L450.275,360.45" />
            <path d="M462.95,360.6 L450.275,360.6 L450.275,360.3 L462.95,360.3 L462.95,360.6" />
        </g>
        <g id="product-0b05be8e-f7d6-4332-958e-1576ff7f4ac5-body" class="IfcWindow" data-name="EG-Fenster-7" data-guid="0B1RwEzzP3CfME5NR$Vqh5">
            <path d="M423.8,344.925 L423.8,343.875 L424.55,343.875 L424.55,344.925 L423.8,344.925 M423.8,330.45 L423.8,329.4 L424.55,329.4 L424.55,330.45 L423.8,330.45 M423.8,315.975 L423.8,314.925 L424.55,314.925 L424.55,315.975 L423.8,315.975" />
            <path d="M424.175,343.875 L424.175,343.5 L424.55,343.5 L424.55,343.875 L424.175,343.875 M424.175,330.825 L424.175,330.45 L424.55,330.45 L424.55,330.825 L424.175,330.825" />
            <path d="M424.55,344.25 L424.55,343.5 L424.925,343.5 L424.925,344.25 L424.55,344.25 M424.55,330.825 L424.55,330.075 L424.925,330.075 L424.925,330.825 L424.55,330.825" />
            <path d="M424.4,343.5 L424.4,330.825 L424.7,330.825 L424.7,343.5 L424.4,343.5" />
            <path d="M424.175,329.4 L424.175,329.025 L424.55,329.025 L424.55,329.4 L424.175,329.4 M424.175,316.35 L424.175,315.975 L424.55,315.975 L424.55,316.35 L424.175,316.35" />
            <path d="M424.55,329.775 L424.55,329.025 L424.925,329.025 L424.925,329.775 L424.55,329.775 M424.55,316.35 L424.55,315.6 L424.925,315.6 L424.925,316.35 L424.55,316.35" />
            <path d="M424.4,329.025 L424.4,316.35 L424.7,316.35 L424.7,329.025 L424.4,329.025" />
        </g>
        <g id="product-4391c887-27d9-48a5-9111-2b339303dfa8-body" class="IfcWindow" data-name="EG-Fenster-8" data-guid="13aSY79zb8fP4HApEJ0z_e">
            <path d="M600.2,235.464 L600.2,236.514 L599.45,236.514 L599.45,235.464 L600.2,235.464 M600.2,249.939 L600.2,250.989 L599.45,250.989 L599.45,249.939 L600.2,249.939 M600.2,264.414 L600.2,265.464 L599.45,265.464 L599.45,264.414 L600.2,264.414" />
            <path d="M599.825,236.514 L599.825,236.889 L599.45,236.889 L599.45,236.514 L599.825,236.514 M599.825,249.564 L599.825,249.939 L599.45,249.939 L599.45,249.564 L599.825,249.564" />
            <path d="M599.45,236.139 L599.45,236.889 L599.075,236.889 L599.075,236.139 L599.45,236.139 M599.45,249.564 L599.45,250.314 L599.075,250.314 L599.075,249.564 L599.45,249.564" />
            <path d="M599.6,236.889 L599.6,249.564 L599.3,249.564 L599.3,236.889 L599.6,236.889" />
            <path d="M599.825,250.989 L599.825,251.364 L599.45,251.364 L599.45,250.989 L599.825,250.989 M599.825,264.039 L599.825,264.414 L599.45,264.414 L599.45,264.039 L599.825,264.039" />
            <path d="M599.45,250.614 L599.45,251.364 L599.075,251.364 L599.075,250.614 L599.45,250.614 M599.45,264.039 L599.45,264.789 L599.075,264.789 L599.075,264.039 L599.45,264.039" />
            <path d="M599.6,251.364 L599.6,264.039 L599.3,264.039 L599.3,251.364 L599.6,251.364" />
        </g>
        <g id="product-cb3e6f2f-3368-4711-968a-c9b2a81695f9-body" class="IfcWindow" data-name="EG-Fenster-5" data-guid="3BFcylCsX74PQAoRAe5fNv">
            <path d="M575.15,361.2 L574.1,361.2 L574.1,360.45 L575.15,360.45 L575.15,361.2 M560.675,361.2 L559.625,361.2 L559.625,360.45 L560.675,360.45 L560.675,361.2 M546.2,361.2 L545.15,361.2 L545.15,360.45 L546.2,360.45 L546.2,361.2" />
            <path d="M574.1,360.825 L573.725,360.825 L573.725,360.45 L574.1,360.45 L574.1,360.825 M561.05,360.825 L560.675,360.825 L560.675,360.45 L561.05,360.45 L561.05,360.825" />
            <path d="M574.475,360.45 L573.725,360.45 L573.725,360.075 L574.475,360.075 L574.475,360.45 M561.05,360.45 L560.3,360.45 L560.3,360.075 L561.05,360.075 L561.05,360.45" />
            <path d="M573.725,360.6 L561.05,360.6 L561.05,360.3 L573.725,360.3 L573.725,360.6" />
            <path d="M559.625,360.825 L559.25,360.825 L559.25,360.45 L559.625,360.45 L559.625,360.825 M546.575,360.825 L546.2,360.825 L546.2,360.45 L546.575,360.45 L546.575,360.825" />
            <path d="M560,360.45 L559.25,360.45 L559.25,360.075 L560,360.075 L560,360.45 M546.575,360.45 L545.825,360.45 L545.825,360.075 L546.575,360.075 L546.575,360.45" />
            <path d="M559.25,360.6 L546.575,360.6 L546.575,360.3 L559.25,360.3 L559.25,360.6" />
        </g>
        <g id="product-d9a5cfbe-8be3-4b2a-9d05-c64586f4d0a3-body" class="IfcWallStandardCase" data-name="Wand-Int-ERDG-2" data-guid="3PfS__Y_DBAfq5naM6zD2Z">
            <path d="M533.15,217.5 L533.15,281.363 L536.75,281.363 L536.75,217.5 L533.15,217.5 M533.15,294.637 L533.15,302.85 L536.75,299.25 L536.75,294.638 L533.15,294.637" />
        </g>
        <g id="product-8e6abfad-ad90-4bf8-af8a-5b8713985380-body" class="IfcWindow" data-name="EG-Fenster-9" data-guid="2EQh_jhP1B_A_AMuSJc5E0">
            <path d="M600.2,344.925 L599.45,344.925 L599.45,343.875 L600.2,343.875 L600.2,344.925 M599.45,330.45 L599.45,329.4 L600.2,329.4 L600.2,330.45 L599.45,330.45 M599.45,315.975 L599.45,314.925 L600.2,314.925 L600.2,315.975 L599.45,315.975" />
            <path d="M599.825,343.875 L599.45,343.875 L599.45,343.5 L599.825,343.5 L599.825,343.875 M599.45,330.825 L599.45,330.45 L599.825,330.45 L599.825,330.825 L599.45,330.825" />
            <path d="M599.45,344.25 L599.075,344.25 L599.075,343.5 L599.45,343.5 L599.45,344.25 M599.075,330.825 L599.075,330.075 L599.45,330.075 L599.45,330.825 L599.075,330.825" />
            <path d="M599.6,343.5 L599.3,343.5 L599.3,330.825 L599.6,330.825 L599.6,343.5" />
            <path d="M599.825,329.4 L599.45,329.4 L599.45,329.025 L599.825,329.025 L599.825,329.4 M599.45,316.35 L599.45,315.975 L599.825,315.975 L599.825,316.35 L599.45,316.35" />
            <path d="M599.45,329.775 L599.075,329.775 L599.075,329.025 L599.45,329.025 L599.45,329.775 M599.075,316.35 L599.075,315.6 L599.45,315.6 L599.45,316.35 L599.075,316.35" />
            <path d="M599.6,329.025 L599.3,329.025 L599.3,316.35 L599.6,316.35 L599.6,329.025" />
        </g>
        <g id="product-9a27a1f2-6e16-4210-9b4b-ca53967f4be3-body" class="IfcWindow" data-name="EG-Fenster-2" data-guid="2Q9w7oRXP249jBobEMVqlZ">
            <path d="M521.9,214.8 L521.9,215.55 L520.85,215.55 L520.85,214.8 L521.9,214.8 M507.425,215.55 L506.375,215.55 L506.375,214.8 L507.425,214.8 L507.425,215.55 M492.95,215.55 L491.9,215.55 L491.9,214.8 L492.95,214.8 L492.95,215.55" />
            <path d="M520.85,215.175 L520.85,215.55 L520.475,215.55 L520.475,215.175 L520.85,215.175 M507.8,215.55 L507.425,215.55 L507.425,215.175 L507.8,215.175 L507.8,215.55" />
            <path d="M521.225,215.55 L521.225,215.925 L520.475,215.925 L520.475,215.55 L521.225,215.55 M507.8,215.925 L507.05,215.925 L507.05,215.55 L507.8,215.55 L507.8,215.925" />
            <path d="M520.475,215.4 L520.475,215.7 L507.8,215.7 L507.8,215.4 L520.475,215.4" />
            <path d="M506.375,215.175 L506.375,215.55 L506,215.55 L506,215.175 L506.375,215.175 M493.325,215.55 L492.95,215.55 L492.95,215.175 L493.325,215.175 L493.325,215.55" />
            <path d="M506.75,215.55 L506.75,215.925 L506,215.925 L506,215.55 L506.75,215.55 M493.325,215.925 L492.575,215.925 L492.575,215.55 L493.325,215.55 L493.325,215.925" />
            <path d="M506,215.4 L506,215.7 L493.325,215.7 L493.325,215.4 L506,215.4" />
        </g>
        <g id="product-4db22d2b-a7d4-49ef-be13-9df47a84c5e4-body" class="IfcWindow" data-name="EG-Fenster-3" data-guid="1DiYqhfzH9xxuJdVHwXCNa">
            <path d="M583.925,214.8 L583.925,215.55 L582.875,215.55 L582.875,214.8 L583.925,214.8 M569.45,215.55 L568.4,215.55 L568.4,214.8 L569.45,214.8 L569.45,215.55 M554.975,215.55 L553.925,215.55 L553.925,214.8 L554.975,214.8 L554.975,215.55" />
            <path d="M582.875,215.175 L582.875,215.55 L582.5,215.55 L582.5,215.175 L582.875,215.175 M569.825,215.55 L569.45,215.55 L569.45,215.175 L569.825,215.175 L569.825,215.55" />
            <path d="M583.25,215.55 L583.25,215.925 L582.5,215.925 L582.5,215.55 L583.25,215.55 M569.825,215.925 L569.075,215.925 L569.075,215.55 L569.825,215.55 L569.825,215.925" />
            <path d="M582.5,215.4 L582.5,215.7 L569.825,215.7 L569.825,215.4 L582.5,215.4" />
            <path d="M568.4,215.175 L568.4,215.55 L568.025,215.55 L568.025,215.175 L568.4,215.175 M555.35,215.55 L554.975,215.55 L554.975,215.175 L555.35,215.175 L555.35,215.55" />
            <path d="M568.775,215.55 L568.775,215.925 L568.025,215.925 L568.025,215.55 L568.775,215.55 M555.35,215.925 L554.6,215.925 L554.6,215.55 L555.35,215.55 L555.35,215.925" />
            <path d="M568.025,215.4 L568.025,215.7 L555.35,215.7 L555.35,215.4 L568.025,215.4" />
        </g>
        <g id="product-15dc8a9b-f8e2-4e72-8411-1788bea89a09-body" class="IfcSpace" data-name="5" data-guid="0Lt8gR_E9ESeGH5uY_g9e9">
            <path d="M597.5,302.85 L597.5,358.5 L492.425,358.5 L492.425,302.85 L533.15,302.85 L597.5,302.85" style="fill: #aa0055;" />
            <text text-anchor="middle" x="544.962" y="330.675"><tspan style="fill:#FFFFFF;font-weight:bold;font-size:18px" dy="0.4em">22.1</tspan></text></g>
        <g id="product-ffa42cc7-7fc5-4b1e-8cbb-18770afbd50e-body" class="IfcSpace" data-name="1" data-guid="3$f2p7VyLB7eox67SA_zKE">
            <path d="M533.15,276.75 L533.15,302.85 L479,302.85 L479,299.25 L426.5,299.25 L426.5,276.75 L533.15,276.75" style="fill: #0000ff;" />
            <text text-anchor="middle" x="479.825" y="289.8"><tspan style="fill:#FFFFFF;font-weight:bold;font-size:18px" dy="0.4em">0.0</tspan></text></g>
        <g id="product-474e3996-3f5a-45dd-8a77-79db272809c3-body" class="IfcSpace" data-name="6" data-guid="17JZcMFrf5tOftUTidA0d3">
            <path d="M426.5,358.5 L426.5,302.85 L479,302.85 L492.425,302.85 L492.425,358.5 L426.5,358.5" style="fill: #0000ff;" />
            <text text-anchor="middle" x="459.463" y="330.675"><tspan style="fill:#FFFFFF;font-weight:bold;font-size:18px" dy="0.4em">0.0</tspan></text></g>
        <g id="product-5d292132-e148-4487-b12f-2cd8d2e05d16-body" class="IfcWindow" data-name="EG-Fenster-1" data-guid="1TAI4ouKX4Xx4lBDZIu5qM">
            <path d="M467.75,214.8 L467.75,215.55 L466.7,215.55 L466.7,214.8 L467.75,214.8 M453.275,215.55 L452.225,215.55 L452.225,214.8 L453.275,214.8 L453.275,215.55 M438.8,215.55 L437.75,215.55 L437.75,214.8 L438.8,214.8 L438.8,215.55" />
            <path d="M466.7,215.175 L466.7,215.55 L466.325,215.55 L466.325,215.175 L466.7,215.175 M453.65,215.55 L453.275,215.55 L453.275,215.175 L453.65,215.175 L453.65,215.55" />
            <path d="M467.075,215.55 L467.075,215.925 L466.325,215.925 L466.325,215.55 L467.075,215.55 M453.65,215.925 L452.9,215.925 L452.9,215.55 L453.65,215.55 L453.65,215.925" />
            <path d="M466.325,215.4 L466.325,215.7 L453.65,215.7 L453.65,215.4 L466.325,215.4" />
            <path d="M452.225,215.175 L452.225,215.55 L451.85,215.55 L451.85,215.175 L452.225,215.175 M439.175,215.55 L438.8,215.55 L438.8,215.175 L439.175,215.175 L439.175,215.55" />
            <path d="M452.6,215.55 L452.6,215.925 L451.85,215.925 L451.85,215.55 L452.6,215.55 M439.175,215.925 L438.425,215.925 L438.425,215.55 L439.175,215.55 L439.175,215.925" />
            <path d="M451.85,215.4 L451.85,215.7 L439.175,215.7 L439.175,215.4 L451.85,215.4" />
        </g>
        <g id="product-56feaede-d610-4fb3-aa03-64613ae87785-body" class="IfcDoor" data-name="Terrassentuer" data-guid="1M$gxUrX1Fiwe3P64ww7U5">
            <path d="M527.075,358.5 L527.075,360 L526.325,360 L526.325,358.5 L527.075,358.5 M497.675,360 L496.925,360 L496.925,358.5 L497.675,358.5 L497.675,360" />
            <path d="M526.325,359.625 L526.325,360.375 L525.575,360.375 L525.575,359.625 L526.325,359.625 M517.025,360.375 L516.275,360.375 L516.275,359.625 L517.025,359.625 L517.025,360.375" />
            <path d="M525.575,359.925 L525.575,360.075 L517.025,360.075 L517.025,359.925 L525.575,359.925" />
            <path d="M521.487,359.812 L521.487,360.188 L521.112,360.188 L521.112,359.812 L521.487,359.812" />
            <path d="M517.025,358.875 L517.025,359.625 L516.275,359.625 L516.275,358.875 L517.025,358.875 M507.725,359.625 L506.975,359.625 L506.975,358.875 L507.725,358.875 L507.725,359.625" />
            <path d="M516.275,359.175 L516.275,359.325 L507.725,359.325 L507.725,359.175 L516.275,359.175" />
            <path d="M512.188,359.062 L512.188,359.438 L511.812,359.438 L511.812,359.062 L512.188,359.062" />
            <path d="M507.725,358.125 L507.725,358.875 L506.975,358.875 L506.975,358.125 L507.725,358.125 M498.425,358.875 L497.675,358.875 L497.675,358.125 L498.425,358.125 L498.425,358.875" />
            <path d="M506.975,358.425 L506.975,358.575 L498.425,358.575 L498.425,358.425 L506.975,358.425" />
            <path d="M502.887,358.312 L502.887,358.688 L502.512,358.688 L502.512,358.312 L502.887,358.312" />
        </g>
        <g id="product-ad75bd26-aeda-47c8-b03c-ada184182740-body" class="IfcDoor" data-name="Haustuer" data-guid="2jTRqchjf7oB0yhQ6462T0">
            <path d="M426.5,295.575 L425.3,295.575 L425.3,295.275 L426.5,295.275 L426.5,295.575 M425.3,280.725 L425.3,280.425 L426.5,280.425 L426.5,280.725 L425.3,280.725" />
            <path d="M425.3,295.575 L425,295.575 L425,294.825 L425.3,294.825 L425.3,295.575 M425,281.175 L425,280.425 L425.3,280.425 L425.3,281.175 L425,281.175" />
            <path d="M426.35,295.275 L425.3,295.275 L425.3,280.725 L426.35,280.725 L426.35,295.275" />
        </g>
        <g id="product-85a76959-f2e0-457f-9e21-4bff17528c54-body" class="IfcWallStandardCase" data-name="Wand-Ext-ERDG-3" data-guid="25fsbPyk15VvuXI$yNKenK">
            <path d="M597.5,217.5 L597.5,235.464 L599.45,235.464 L602,235.464 L602,213 L597.5,217.5 M597.5,265.464 L597.5,314.925 L599.45,314.925 L602,314.925 L602,265.464 L599.45,265.464 L597.5,265.464 M597.5,344.925 L597.5,358.5 L602,363 L602,344.925 L599.45,344.925 L597.5,344.925" />
        </g>
        <g id="product-463575f4-f696-42de-bde9-918a6fe7650a-body" class="IfcWallStandardCase" data-name="Wand-Ext-ERDG-4" data-guid="16DNNqzfP2thtfaOflvsKA">
            <path d="M597.5,358.5 L575.15,358.5 L575.15,360.45 L575.15,363 L602,363 L597.5,358.5 M545.15,358.5 L527.075,358.5 L527.075,363 L545.15,363 L545.15,360.45 L545.15,358.5 M496.925,358.5 L478.85,358.5 L478.85,360.45 L478.85,363 L496.925,363 L496.925,358.5 M448.85,358.5 L426.5,358.5 L422,363 L448.85,363 L448.85,360.45 L448.85,358.5" />
        </g>
        <g id="product-f5661f93-e3d1-49ce-8861-886e8d4ef048-body" class="IfcWallStandardCase" data-name="Wand-Ext-ERDG-1" data-guid="3rPX_Juz59peXXY6wDJl18">
            <path d="M426.5,358.5 L426.5,344.925 L424.55,344.925 L422,344.925 L422,363 L426.5,358.5 M426.5,314.925 L426.5,295.575 L422,295.575 L422,314.925 L424.55,314.925 L426.5,314.925 M426.5,280.425 L426.5,265.575 L424.55,265.575 L422,265.575 L422,280.425 L426.5,280.425 M426.5,235.575 L426.5,217.5 L422,213 L422,235.575 L424.55,235.575 L426.5,235.575" />
        </g>
        <g id="product-65f697f6-4f4c-4836-8159-e2e335d3cbfd-body" class="IfcWallStandardCase" data-name="Wand-Ext-ERDG-2" data-guid="1bzfVsJqn8De5PukCrqylz">
            <path d="M426.5,217.5 L437.75,217.5 L437.75,215.55 L437.75,213 L422,213 L426.5,217.5 M467.75,217.5 L491.9,217.5 L491.9,215.55 L491.9,213 L467.75,213 L467.75,215.55 L467.75,217.5 M521.9,217.5 L553.925,217.5 L553.925,215.55 L553.925,213 L521.9,213 L521.9,215.55 L521.9,217.5 M583.925,217.5 L597.5,217.5 L602,213 L583.925,213 L583.925,215.55 L583.925,217.5" />
        </g>
        <g id="product-a167c520-8800-48d8-a07c-aa352a699dde-box" class="IfcWallStandardCase" data-name="Wand-Int-ERDG-4" data-guid="2XPyKWY018sA1ygZKgQPtU">
            <path d="M533.15,299.25 L533.15,302.85 L597.5,302.85 L597.5,299.25 L533.15,299.25" />
        </g>
        <g id="product-d9a5cfbe-8be3-4b2a-9d05-c64586f4d0a3-box" class="IfcWallStandardCase" data-name="Wand-Int-ERDG-2" data-guid="3PfS__Y_DBAfq5naM6zD2Z">
            <path d="M533.15,281.363 L536.75,281.363 L536.75,217.5 L533.15,217.5 L533.15,281.363 M536.75,294.637 L533.15,294.637 L533.15,302.85 L536.75,302.85 L536.75,294.638" />
        </g>
        <g id="product-58c36207-1644-4382-afc9-bc61510a343a-box" class="IfcDoor" data-name="Innentuer-1" data-guid="1Oms875aH3Wg$9l65H2ZGw">
            <path d="M533.15,294.637 L534.65,294.637 L534.65,281.362 L533.15,281.363 L533.15,294.637" />
            <path d="M533.9,281.362 L520.625,281.362 A13.275,13.275 1.5708 0,0 533.9,294.638" />
        </g>
        <g id="product-b3dee06e-1f4c-48f9-ab82-0b9b6bfc034e-box" class="IfcWallStandardCase" data-name="Wand-Int-ERDG-1" data-guid="2ptk1k7qn8_Qk22vjh$0DE">
            <path d="M482.6,217.5 L479,217.5 L479,273.15 L482.6,273.15 L482.6,217.5" />
        </g>
        <g id="product-3340ab6f-4d66-43b2-9899-29d7cf17b29b-box" class="IfcDoor" data-name="Innentuer-2" data-guid="0pGAjlJMP3ifYPATVF5xAR">
            <path d="M500.262,275.25 L500.262,276.75 L513.538,276.75 L513.538,275.25 L500.262,275.25" />
            <path d="M513.538,276 A13.275,13.275 0 0,0 500.262,262.725 L500.262,276" />
        </g>
        <g id="product-b4b1964f-0cfd-4f21-84b4-a7552c71ed30-box" class="IfcDoor" data-name="Innentuer-3" data-guid="2qiPPF3FrF8OIqfrKiSUqm">
            <path d="M446.113,275.25 L446.113,276.75 L459.387,276.75 L459.387,275.25 L446.113,275.25" />
            <path d="M459.388,276 A13.275,13.275 0 0,0 446.112,262.725 L446.112,276" />
        </g>
        <g id="product-7feb09fa-819b-4d8b-8bb8-faaadfbbcc4e-box" class="IfcWallStandardCase" data-name="Wand-Int-ERDG-5" data-guid="1$wmdwWPjDYuku_ghVkynE">
            <path d="M426.5,299.25 L426.5,302.85 L479,302.85 L479,299.25 L426.5,299.25" />
        </g>
        <g id="product-edb600f5-5461-46a3-b0c4-43ad8208ea56-box" class="IfcWallStandardCase" data-name="Wand-Int-ERDG-3" data-guid="3jjW3rL656ex34Gws22EfM">
            <path d="M446.113,276.75 L446.113,273.15 L426.5,273.15 L426.5,276.75 L446.113,276.75 M459.387,273.15 L459.387,276.75 L500.262,276.75 L500.262,273.15 L459.387,273.15 M513.538,273.15 L513.538,276.75 L533.15,276.75 L533.15,273.15 L513.538,273.15" />
        </g>
        <g id="product-28fab96e-49a1-4d59-abd2-4ff09f0edfb0-box" class="IfcSpace" data-name="3" data-guid="0e_hbkIQ5DMQlIJ$2V3j_m">
            <path d="M533.15,217.5 L482.6,217.5 L482.6,273.15 L533.15,273.15 L533.15,217.5" style="fill: #ff0000;" />
            <text text-anchor="middle" x="507.875" y="245.325"><tspan style="fill:#FFFFFF;font-weight:bold;font-size:18px" dy="0.4em">33.3</tspan></text></g>
        <g id="product-c41ed3ce-0bc8-474a-b30e-48a570e33391-box" class="IfcSpace" data-name="4" data-guid="347jFE2yX7IhCEIALmupEH">
            <path d="M597.5,217.5 L536.75,217.5 L536.75,299.25 L597.5,299.25 L597.5,217.5" style="fill: #860079;" />
            <text text-anchor="middle" x="567.125" y="258.375"><tspan style="fill:#FFFFFF;font-weight:bold;font-size:18px" dy="0.4em">17.5</tspan></text></g>
        <g id="product-76d4a4bf-6c47-48b2-b561-71747079c39d-box" class="IfcWindow" data-name="EG-Fenster-6" data-guid="1srAI$R4T8ihLXSNHmUSET">
            <path d="M423.8,265.575 L424.925,265.575 L424.925,235.575 L423.8,235.575 L423.8,265.575" />
        </g>
        <g id="product-9b70cf55-60bf-443c-a53f-fba3887e6b96-box" class="IfcSpace" data-name="2" data-guid="2RSCzLOBz4FAK$_wE8VckM">
            <path d="M479,217.5 L426.5,217.5 L426.5,273.15 L479,273.15 L479,217.5" style="fill: #e0001f;" />
            <text text-anchor="middle" x="452.75" y="245.325"><tspan style="fill:#FFFFFF;font-weight:bold;font-size:18px" dy="0.4em">29.2</tspan></text></g>
        <g id="product-ad75bd26-aeda-47c8-b03c-ada184182740-box" class="IfcDoor" data-name="Haustuer" data-guid="2jTRqchjf7oB0yhQ6462T0">
            <path d="M427.25,280.425 L424.4,280.425 L424.4,295.575 L427.25,295.575 L427.25,280.425" />
        </g>
        <g id="product-0b05be8e-f7d6-4332-958e-1576ff7f4ac5-box" class="IfcWindow" data-name="EG-Fenster-7" data-guid="0B1RwEzzP3CfME5NR$Vqh5">
            <path d="M423.8,344.925 L424.925,344.925 L424.925,314.925 L423.8,314.925 L423.8,344.925" />
        </g>
        <g id="product-85c53ece-ce2a-4855-b353-5ee59e7d8030-box" class="IfcWindow" data-name="EG-Fenster-4" data-guid="25nJxEpYf8LRDJNkMUVO0m">
            <path d="M478.85,361.2 L478.85,360.075 L448.85,360.075 L448.85,361.2 L478.85,361.2" />
        </g>
        <g id="product-cb3e6f2f-3368-4711-968a-c9b2a81695f9-box" class="IfcWindow" data-name="EG-Fenster-5" data-guid="3BFcylCsX74PQAoRAe5fNv">
            <path d="M575.15,361.2 L575.15,360.075 L545.15,360.075 L545.15,361.2 L575.15,361.2" />
        </g>
        <g id="product-56feaede-d610-4fb3-aa03-64613ae87785-box" class="IfcDoor" data-name="Terrassentuer" data-guid="1M$gxUrX1Fiwe3P64ww7U5">
            <path d="M496.925,358.125 L496.925,361.2 L527.075,361.2 L527.075,358.125 L496.925,358.125" />
        </g>
        <g id="product-4391c887-27d9-48a5-9111-2b339303dfa8-box" class="IfcWindow" data-name="EG-Fenster-8" data-guid="13aSY79zb8fP4HApEJ0z_e">
            <path d="M600.2,235.464 L599.075,235.464 L599.075,265.464 L600.2,265.464 L600.2,235.464" />
        </g>
        <g id="product-8e6abfad-ad90-4bf8-af8a-5b8713985380-box" class="IfcWindow" data-name="EG-Fenster-9" data-guid="2EQh_jhP1B_A_AMuSJc5E0">
            <path d="M600.2,314.925 L599.075,314.925 L599.075,344.925 L600.2,344.925 L600.2,314.925" />
        </g>
        <g id="product-5d292132-e148-4487-b12f-2cd8d2e05d16-box" class="IfcWindow" data-name="EG-Fenster-1" data-guid="1TAI4ouKX4Xx4lBDZIu5qM">
            <path d="M437.75,214.8 L437.75,215.925 L467.75,215.925 L467.75,214.8 L437.75,214.8" />
        </g>
        <g id="product-9a27a1f2-6e16-4210-9b4b-ca53967f4be3-box" class="IfcWindow" data-name="EG-Fenster-2" data-guid="2Q9w7oRXP249jBobEMVqlZ">
            <path d="M491.9,214.8 L491.9,215.925 L521.9,215.925 L521.9,214.8 L491.9,214.8" />
        </g>
        <g id="product-4db22d2b-a7d4-49ef-be13-9df47a84c5e4-box" class="IfcWindow" data-name="EG-Fenster-3" data-guid="1DiYqhfzH9xxuJdVHwXCNa">
            <path d="M553.925,214.8 L553.925,215.925 L583.925,215.925 L583.925,214.8 L553.925,214.8" />
        </g>
        <g id="product-ffa42cc7-7fc5-4b1e-8cbb-18770afbd50e-box" class="IfcSpace" data-name="1" data-guid="3$f2p7VyLB7eox67SA_zKE">
            <path d="M426.5,276.75 L426.5,302.85 L533.15,302.85 L533.15,276.75 L426.5,276.75" style="fill: #0000ff;" />
            <text text-anchor="middle" x="479.825" y="289.8"><tspan style="fill:#FFFFFF;font-weight:bold;font-size:18px" dy="0.4em">0.0</tspan></text></g>
        <g id="product-15dc8a9b-f8e2-4e72-8411-1788bea89a09-box" class="IfcSpace" data-name="5" data-guid="0Lt8gR_E9ESeGH5uY_g9e9">
            <path d="M492.425,358.5 L597.5,358.5 L597.5,302.85 L492.425,302.85 L492.425,358.5" style="fill: #aa0055;" />
            <text text-anchor="middle" x="544.962" y="330.675"><tspan style="fill:#FFFFFF;font-weight:bold;font-size:18px" dy="0.4em">22.1</tspan></text></g>
        <g id="product-474e3996-3f5a-45dd-8a77-79db272809c3-box" class="IfcSpace" data-name="6" data-guid="17JZcMFrf5tOftUTidA0d3">
            <path d="M492.425,302.85 L426.5,302.85 L426.5,358.5 L492.425,358.5 L492.425,302.85" style="fill: #0000ff;" />
            <text text-anchor="middle" x="459.463" y="330.675"><tspan style="fill:#FFFFFF;font-weight:bold;font-size:18px" dy="0.4em">0.0</tspan></text></g>
        <g id="product-85a76959-f2e0-457f-9e21-4bff17528c54-box" class="IfcWallStandardCase" data-name="Wand-Ext-ERDG-3" data-guid="25fsbPyk15VvuXI$yNKenK">
            <path d="M602,213 L597.5,213 L597.5,235.464 L599.45,235.464 L602,235.464 L602,213 M597.5,265.464 L597.5,314.925 L599.45,314.925 L602,314.925 L602,265.464 L599.45,265.464 L597.5,265.464 M597.5,344.925 L597.5,363 L602,363 L602,344.925 L599.45,344.925 L597.5,344.925" />
        </g>
        <g id="product-f5661f93-e3d1-49ce-8861-886e8d4ef048-box" class="IfcWallStandardCase" data-name="Wand-Ext-ERDG-1" data-guid="3rPX_Juz59peXXY6wDJl18">
            <path d="M422,363 L426.5,363 L426.5,344.925 L424.55,344.925 L422,344.925 L422,363 M426.5,295.575 L422,295.575 L422,314.925 L424.55,314.925 L426.5,314.925 L426.5,295.575 M426.5,280.425 L426.5,265.575 L424.55,265.575 L422,265.575 L422,280.425 L426.5,280.425 M426.5,235.575 L426.5,213 L422,213 L422,235.575 L424.55,235.575 L426.5,235.575" />
        </g>
        <g id="product-463575f4-f696-42de-bde9-918a6fe7650a-box" class="IfcWallStandardCase" data-name="Wand-Ext-ERDG-4" data-guid="16DNNqzfP2thtfaOflvsKA">
            <path d="M602,363 L602,358.5 L575.15,358.5 L575.15,360.45 L575.15,363 L602,363 M527.075,358.5 L527.075,363 L545.15,363 L545.15,360.45 L545.15,358.5 L527.075,358.5 M496.925,358.5 L478.85,358.5 L478.85,360.45 L478.85,363 L496.925,363 L496.925,358.5 M448.85,358.5 L422,358.5 L422,363 L448.85,363 L448.85,360.45 L448.85,358.5" />
        </g>
        <g id="product-65f697f6-4f4c-4836-8159-e2e335d3cbfd-box" class="IfcWallStandardCase" data-name="Wand-Ext-ERDG-2" data-guid="1bzfVsJqn8De5PukCrqylz">
            <path d="M422,213 L422,217.5 L437.75,217.5 L437.75,215.55 L437.75,213 L422,213 M467.75,217.5 L491.9,217.5 L491.9,215.55 L491.9,213 L467.75,213 L467.75,215.55 L467.75,217.5 M521.9,217.5 L553.925,217.5 L553.925,215.55 L553.925,213 L521.9,213 L521.9,215.55 L521.9,217.5 M583.925,217.5 L602,217.5 L602,213 L583.925,213 L583.925,215.55 L583.925,217.5" />
        </g>
    </g>
    </svg>